<svg width="109" height="95" viewBox="0 0 109 95" fill="none" xmlns="http://www.w3.org/2000/svg">
<g style="mix-blend-mode:overlay">
<path d="M5.136 102.045L64.2208 80.3712L72.2688 3.97443L5.0528 24.6368L5.136 102.045Z" fill="#AD752F"/>
<path d="M55.6864 123.91L5.04961 102.067V24.6272L55.6864 45.7088V123.91Z" fill="#D69340"/>
<path d="M55.6864 123.91L5.04961 102.067V24.6272L55.6864 45.7088V123.91Z" fill="#E6A453"/>
<path d="M34.0992 36.72V52.768L22.704 47.8496V31.9808L34.0992 36.72Z" fill="#AE8E6C"/>
<path d="M123.197 102.07L72.304 80.688V3.94879L123.197 24.6272V102.07Z" fill="#BD8239"/>
<path d="M55.68 123.91L123.203 102.067V24.6272L55.68 45.7088V123.91Z" fill="#D69340"/>
<path d="M5.04961 24.6272L55.68 45.7088L123.203 24.6272L72.304 3.94879L5.04961 24.6272Z" fill="#EDB46F"/>
<path d="M123.203 24.6304L55.68 45.7056L34.2784 36.7968L5.04961 24.6304L72.304 3.94879L99.9424 16.2976L123.203 24.6304Z" fill="#EDB46F"/>
<path d="M89.6192 11.0144L22.7872 31.9104H22.7648L22.6944 31.984L34.0576 36.7552L101.354 15.7472L89.6192 11.0144Z" fill="#EDD1AF"/>
</g>
</svg>
